<?xml version="1.0" encoding="UTF-8"?>
<svg width="8.5in" height="11in" clip-rule="evenodd" fill-rule="evenodd" image-rendering="optimizeQuality" shape-rendering="geometricPrecision" text-rendering="geometricPrecision" version="1.1" viewBox="0 0 8500 11000" xmlns="http://www.w3.org/2000/svg">
 <defs>
  <style type="text/css">.fil2 {fill:none} .fil4 {fill:#232323} .fil0 {fill:#ED3237} .fil3 {fill:#AEA69A} .fil1 {fill:#AEA69A;fill-rule:nonzero}</style>
 </defs>
 <path class="fil0" d="m3244 3700c25-237-19-393-82-532-98-217-242-393-242-777 0-779 654-1411 1460-1411 807 0 1460 632 1460 1411 0 555-280 683-350 1012-51 241 29 514 152 722 234 395 530 539 970 567 761 50 1362 661 1362 1409 0 779-654 1411-1460 1411-1059 0-1009-625-1486-1005-57-45-129-85-236-134-119-56-238-86-356-91-152-4-295 16-430 60-705 232-533 1136-1755 1136-807 0-1460-632-1460-1412 0-735 581-1339 1324-1405 591-53 1064-329 1129-961zm-1008 1995c-212 0-384 172-384 385s172 386 384 386c213 0 385-173 385-386s-172-385-385-385zm4345 15c-213 0-385 172-385 385s172 386 385 386c212 0 384-173 384-386s-172-385-384-385zm-2166-3769c-213 0-385 172-385 385s172 385 385 385c212 0 385-172 385-385s-173-385-385-385zm-1149 1751c0 3 0 7-1 10 1-3 1-7 1-10z"/>
 <path class="fil1" d="m4426 3742c311 0 593 122 797 319 204 198 331 471 331 772s-127 574-331 772c-204 197-486 319-797 319-312 0-594-122-798-319-204-198-330-471-330-772s126-574 330-772c204-197 486-319 798-319zm758 359c-194-188-462-304-758-304-297 0-565 116-759 304-194 187-314 446-314 732s120 545 314 732c194 188 462 304 759 304 296 0 564-116 758-304 194-187 314-446 314-732s-120-545-314-732z"/>
 <ellipse class="fil2" cx="6571" cy="6095" rx="1062" ry="1064"/>
 <ellipse class="fil2" cx="6571" cy="6095" rx="955" ry="957"/>
 <ellipse class="fil2" cx="6571" cy="6095" rx="568" ry="569"/>
 <circle class="fil2" cx="6581" cy="6095" r="385"/>
 <ellipse class="fil2" cx="2226" cy="6080" rx="1062" ry="1064"/>
 <ellipse class="fil2" cx="2226" cy="6080" rx="955" ry="957"/>
 <ellipse class="fil2" cx="2226" cy="6080" rx="568" ry="569"/>
 <circle class="fil2" cx="2236" cy="6080" r="385"/>
 <ellipse class="fil2" cx="4405" cy="2326" rx="1062" ry="1064"/>
 <ellipse class="fil2" cx="4405" cy="2326" rx="955" ry="957"/>
 <ellipse class="fil2" cx="4405" cy="2326" rx="568" ry="569"/>
 <circle class="fil2" cx="4415" cy="2326" r="385"/>
 <path class="fil3" d="m2226 7144c587 0 1062-476 1062-1064 0-587-475-1063-1062-1063-586 0-1061 476-1061 1063 0 588 475 1064 1061 1064zm956-1064c0 529-428 957-956 957-527 0-955-428-955-957 0-528 428-957 955-957 528 0 956 429 956 957z"/>
 <path class="fil4" d="m2226 7037c528 0 956-428 956-957 0-528-428-957-956-957-527 0-955 429-955 957 0 529 428 957 955 957zm568-957c0 314-254 569-568 569-313 0-567-255-567-569s254-568 567-568c314 0 568 254 568 568z"/>
 <path class="fil3" d="m2226 6649c314 0 568-255 568-569s-254-568-568-568c-313 0-567 254-567 568s254 569 567 569zm395-569c0 213-172 386-385 386-212 0-384-173-384-386s172-385 384-385c213 0 385 172 385 385z"/>
 <path class="fil3" d="m7526 6095c0 529-428 957-955 957-528 0-956-428-956-957 0-528 428-957 956-957 527 0 955 429 955 957zm-2017 0c0 588 475 1064 1062 1064 586 0 1061-476 1061-1064 0-587-475-1063-1061-1063-587 0-1062 476-1062 1063z"/>
 <path class="fil4" d="m6571 7052c527 0 955-428 955-957 0-528-428-957-955-957-528 0-956 429-956 957 0 529 428 957 956 957zm567-957c0 314-254 569-567 569-314 0-568-255-568-569s254-568 568-568c313 0 567 254 567 568z"/>
 <path class="fil3" d="m6571 6664c313 0 567-255 567-569s-254-568-567-568c-314 0-568 254-568 568s254 569 568 569zm394-569c0 213-172 386-384 386-213 0-385-173-385-386s172-385 385-385c212 0 384 172 384 385z"/>
 <path class="fil3" d="m4405 3390c586 0 1062-477 1062-1064s-476-1064-1062-1064c-587 0-1062 477-1062 1064s475 1064 1062 1064zm955-1064c0 529-427 957-955 957s-956-428-956-957 428-957 956-957 955 428 955 957z"/>
 <path class="fil4" d="m4405 3283c528 0 955-428 955-957s-427-957-955-957-956 428-956 957 428 957 956 957zm568-957c0 314-255 569-568 569-314 0-568-255-568-569s254-569 568-569c313 0 568 255 568 569z"/>
 <path class="fil3" d="m4405 2895c313 0 568-255 568-569s-255-569-568-569c-314 0-568 255-568 569s254 569 568 569zm395-569c0 213-173 385-385 385-213 0-385-172-385-385s172-385 385-385c212 0 385 172 385 385z"/>
</svg>
