<?xml version="1.0" encoding="utf-8"?>
<!-- Generator: Adobe Illustrator 16.0.0, SVG Export Plug-In . SVG Version: 6.00 Build 0)  -->
<!DOCTYPE svg PUBLIC "-//W3C//DTD SVG 1.1//EN" "http://www.w3.org/Graphics/SVG/1.1/DTD/svg11.dtd">
<svg version="1.1" id="Layer_1" xmlns="http://www.w3.org/2000/svg" xmlns:xlink="http://www.w3.org/1999/xlink" x="0px" y="0px"
	 width="256px" height="256px" viewBox="0 0 256 256" enable-background="new 0 0 256 256" xml:space="preserve">
<g>
	<path fill-rule="evenodd" clip-rule="evenodd" fill="none" d="M55.294,125.443c-21.44-0.632-40.86,10.961-49.08,29.741
		c-8.479,19.36-3.934,41.006,11.566,55.1c23.958,21.779,62.438,17.003,79.702-9.942c3.479-5.439,6.402-11.201,11.023-15.967
		c2.616-2.703,5.327-3.819,9.071-2.794c5.35,1.467,11.189,2.29,16.178,0.652c9.583-3.124,14.378,1.741,18.71,8.277
		c1.958,2.933,3.589,6.083,5.548,9.013c11.416,17.136,27.586,25.682,48.968,24.061c26.168-1.98,46.688-22.994,47.016-47.873
		c0.32-25.142-19.045-45.983-45.498-49.219c-8.402-1.028-16.99,0.255-25.308-2.089c-3.172-0.89-5.186-2.188-6.046-5.529
		c-1.421-5.297-3.724-10.633-7.841-14.267c-7.289-6.43-5.582-12.822-1.642-19.705c1.381-2.378,2.737-4.747,4.201-7.066
		c7.49-11.838,10.057-24.563,6.363-37.956c-5.71-20.751-19.887-33.659-41.905-37.113c-21.34-3.343-38.858,4.333-50.865,21.407
		C73.305,41.479,72.982,59.742,84.473,77.77c3.076,4.822,5.701,9.759,7.433,15.197c0.932,2.978,0.628,5.134-1.601,7.351
		c-3.97,3.936-8.088,8.282-9.201,13.514c-2.127,10-9.479,11.207-17.84,11.596C60.839,125.539,58.413,125.443,55.294,125.443z"/>
	<path fill-rule="evenodd" clip-rule="evenodd" fill="#6BC4A3" d="M55.294,125.443c3.119,0,5.545,0.095,7.971-0.016
		c8.361-0.389,15.713-1.596,17.84-11.596c1.113-5.232,5.231-9.578,9.201-13.514c2.229-2.217,2.533-4.373,1.601-7.351
		c-1.732-5.438-4.357-10.375-7.433-15.197c-11.491-18.028-11.168-36.291,0.983-53.597c12.007-17.074,29.525-24.75,50.865-21.407
		c22.019,3.454,36.195,16.362,41.905,37.113c3.693,13.393,1.127,26.118-6.363,37.956c-1.464,2.319-2.82,4.688-4.201,7.066
		c-3.94,6.883-5.647,13.275,1.642,19.705c4.117,3.634,6.42,8.97,7.841,14.267c0.86,3.342,2.874,4.639,6.046,5.529
		c8.317,2.344,16.905,1.061,25.308,2.089c26.453,3.236,45.818,24.078,45.498,49.219c-0.328,24.879-20.848,45.893-47.016,47.873
		c-21.382,1.621-37.552-6.925-48.968-24.061c-1.959-2.93-3.59-6.08-5.548-9.013c-4.332-6.536-9.127-11.401-18.71-8.277
		c-4.988,1.638-10.828,0.814-16.178-0.652c-3.744-1.025-6.455,0.091-9.071,2.794c-4.621,4.766-7.544,10.527-11.023,15.967
		c-17.264,26.945-55.744,31.722-79.702,9.942c-15.5-14.094-20.045-35.739-11.566-55.1C14.434,136.404,33.854,124.811,55.294,125.443
		z M162.149,51.995c0.039-18.613-15.279-33.547-34.317-33.423c-18.926,0.124-34.02,14.795-34.038,33.096
		c-0.018,18.339,15.014,32.973,33.989,33.085C146.707,84.868,162.107,70.196,162.149,51.995z M53.846,142.673
		c-19.148-0.073-34.008,13.899-34.138,32.119c-0.132,18.463,14.73,33.191,33.71,33.411c18.906,0.22,34.373-14.459,34.467-32.697
		C87.981,156.936,73.267,142.742,53.846,142.673z M202.696,142.673c-19.059-0.066-34.538,14.482-34.634,32.562
		c-0.139,17.979,15.503,32.984,34.299,32.977c18.854-0.008,34.141-14.836,34.12-33.076
		C236.458,156.842,221.768,142.737,202.696,142.673z"/>
	<path fill-rule="evenodd" clip-rule="evenodd" fill="none" d="M162.149,51.995c-0.042,18.201-15.442,32.873-34.366,32.758
		c-18.976-0.112-34.007-14.747-33.989-33.085c0.018-18.3,15.112-32.972,34.038-33.096C146.87,18.448,162.188,33.382,162.149,51.995z
		 M128.017,71.226c11.771-0.017,20.732-8.695,20.602-19.885c-0.168-10.792-9.324-19.347-20.719-19.318
		c-11.367,0.027-20.45,8.6-20.576,19.437C107.194,62.608,116.225,71.244,128.017,71.226z"/>
	<path fill-rule="evenodd" clip-rule="evenodd" fill="none" d="M53.846,142.673c19.421,0.069,34.135,14.263,34.039,32.833
		c-0.094,18.238-15.561,32.917-34.467,32.697c-18.98-0.22-33.842-14.948-33.71-33.411C19.838,156.572,34.697,142.6,53.846,142.673z
		 M33.041,175.693c0.103,10.384,9.433,19.4,20.147,19.472c11.29,0.076,21.024-9.146,21.029-19.925
		c0.004-10.846-9.58-20.115-20.832-20.154C42.46,155.049,32.929,164.701,33.041,175.693z"/>
	<path fill-rule="evenodd" clip-rule="evenodd" fill="none" d="M202.696,142.673c19.071,0.064,33.762,14.169,33.785,32.462
		c0.021,18.24-15.266,33.068-34.12,33.076c-18.796,0.008-34.438-14.998-34.299-32.977
		C168.158,157.155,183.638,142.606,202.696,142.673z M222.918,175.381c0-10.99-9.627-20.373-20.673-20.172
		c-11.408,0.205-20.675,9.431-20.545,20.37c0.169,10.572,9.585,19.427,20.803,19.511
		C213.484,195.165,222.918,186.087,222.918,175.381z"/>
	<path fill-rule="evenodd" clip-rule="evenodd" fill="#FCB914" d="M128.017,71.226c-11.792,0.018-20.822-8.618-20.693-19.767
		c0.126-10.837,9.209-19.41,20.576-19.437c11.395-0.028,20.551,8.526,20.719,19.318C148.749,62.531,139.787,71.209,128.017,71.226z"
		/>
	<path fill-rule="evenodd" clip-rule="evenodd" fill="#F1666E" d="M33.041,175.693c-0.111-10.992,9.42-20.645,20.345-20.607
		c11.251,0.039,20.836,9.309,20.832,20.154c-0.004,10.778-9.739,20.001-21.029,19.925C42.474,195.094,33.144,186.077,33.041,175.693
		z"/>
	<path fill-rule="evenodd" clip-rule="evenodd" fill="#6B69B0" d="M222.918,175.381c0,10.706-9.434,19.784-20.415,19.709
		c-11.218-0.084-20.634-8.938-20.803-19.511c-0.13-10.939,9.137-20.165,20.545-20.37
		C213.291,155.008,222.918,164.391,222.918,175.381z"/>
</g>
</svg>
