<?xml version="1.0" encoding="utf-8"?>
<!-- Generator: Adobe Illustrator 16.2.0, SVG Export Plug-In . SVG Version: 6.00 Build 0)  -->
<!DOCTYPE svg PUBLIC "-//W3C//DTD SVG 1.1//EN" "http://www.w3.org/Graphics/SVG/1.1/DTD/svg11.dtd">
<svg version="1.1" id="Layer_1" xmlns="http://www.w3.org/2000/svg" xmlns:xlink="http://www.w3.org/1999/xlink" x="0px" y="0px"
	 width="400px" height="400px" viewBox="-78.711 -78.352 400 400" enable-background="new -78.711 -78.352 400 400"
	 xml:space="preserve">
<g>
	<path fill="none" d="M-24.285,71.016c-21.694-0.649-41.345,11.277-49.661,30.596c-8.58,19.918-3.981,42.185,11.702,56.686
		c24.243,22.404,63.178,17.492,80.646-10.229c3.52-5.596,6.478-11.523,11.153-16.426c2.647-2.781,5.391-3.929,9.179-2.874
		c5.413,1.509,11.322,2.355,16.369,0.67c9.696-3.213,14.548,1.792,18.932,8.515c1.98,3.019,3.631,6.259,5.614,9.273
		c11.55,17.629,27.911,26.42,49.548,24.753c26.478-2.038,47.24-23.655,47.571-49.25c0.325-25.865-19.27-47.305-46.036-50.634
		c-8.501-1.059-17.191,0.262-25.608-2.149c-3.209-0.916-5.247-2.251-6.116-5.688c-1.438-5.449-3.769-10.939-7.935-14.679
		c-7.376-6.614-5.648-13.189-1.661-20.271c1.397-2.444,2.77-4.882,4.25-7.269c7.579-12.178,10.177-25.27,6.439-39.048
		C94.324-38.354,79.979-51.633,57.7-55.188c-21.592-3.438-39.318,4.459-51.467,22.022C-6.062-15.361-6.388,3.426,5.239,21.974
		c3.112,4.959,5.769,10.038,7.521,15.633c0.942,3.063,0.636,5.281-1.621,7.562c-4.017,4.05-8.184,8.521-9.31,13.903
		c-2.152,10.287-9.591,11.529-18.051,11.93C-18.675,71.115-21.129,71.016-24.285,71.016z"/>
	<path fill="#6BC4A3" d="M-24.285,71.016c3.156,0,5.61,0.099,8.066-0.017C-7.76,70.6-0.32,69.357,1.832,59.07
		c1.125-5.383,5.292-9.854,9.31-13.902c2.256-2.28,2.563-4.498,1.62-7.563c-1.753-5.594-4.409-10.674-7.521-15.634
		C-6.388,3.425-6.06-15.363,6.235-33.167C18.384-50.73,36.11-58.628,57.702-55.189c22.279,3.554,36.624,16.833,42.401,38.18
		c3.736,13.778,1.14,26.87-6.439,39.048c-1.48,2.387-2.853,4.823-4.25,7.269c-3.987,7.082-5.715,13.657,1.661,20.271
		c4.166,3.739,6.496,9.229,7.935,14.679c0.869,3.438,2.907,4.771,6.116,5.688c8.416,2.411,17.107,1.091,25.608,2.149
		c26.767,3.329,46.361,24.771,46.036,50.634c-0.331,25.594-21.094,47.212-47.571,49.25c-21.637,1.667-37.998-7.124-49.548-24.753
		c-1.983-3.015-3.634-6.255-5.614-9.273c-4.384-6.723-9.235-11.728-18.932-8.515c-5.047,1.686-10.956,0.838-16.369-0.67
		c-3.788-1.055-6.531,0.093-9.179,2.874c-4.676,4.902-7.634,10.83-11.153,16.426c-17.468,27.72-56.403,32.635-80.646,10.228
		c-15.684-14.5-20.282-36.766-11.702-56.685C-65.63,82.293-45.979,70.366-24.285,71.016z M83.835-4.544
		c0.039-19.147-15.46-34.511-34.724-34.384C29.962-38.799,14.689-23.706,14.671-4.88c-0.02,18.866,15.192,33.922,34.392,34.036
		C68.21,29.275,83.793,14.182,83.835-4.544z M-25.75,88.741c-19.375-0.075-34.41,14.3-34.543,33.042
		c-0.133,18.994,14.904,34.146,34.109,34.372c19.131,0.227,34.78-14.874,34.875-33.637C8.788,103.414-6.1,88.813-25.75,88.741z
		 M124.861,88.741c-19.284-0.067-34.946,14.897-35.043,33.498c-0.141,18.496,15.686,33.933,34.705,33.925
		c19.076-0.008,34.545-15.262,34.523-34.026C159.023,103.318,144.159,88.807,124.861,88.741z"/>
	<path fill="none" d="M83.835-4.544c-0.042,18.726-15.625,33.819-34.772,33.7C29.861,29.042,14.651,13.985,14.671-4.88
		c0.019-18.825,15.291-33.919,34.44-34.048C68.375-39.055,83.874-23.691,83.835-4.544z M49.299,15.239
		c11.91-0.017,20.977-8.943,20.846-20.456c-0.17-11.103-9.435-19.902-20.964-19.874c-11.502,0.029-20.692,8.848-20.819,19.997
		C28.229,6.375,37.367,15.26,49.299,15.239z"/>
	<path fill="none" d="M-25.75,88.741c19.65,0.071,34.538,14.673,34.441,33.777c-0.095,18.763-15.744,33.863-34.875,33.637
		c-19.205-0.227-34.242-15.378-34.109-34.372C-60.16,103.041-45.126,88.666-25.75,88.741z M-46.801,122.711
		c0.104,10.684,9.545,19.958,20.385,20.032c11.424,0.078,21.272-9.409,21.277-20.498c0.004-11.157-9.693-20.693-21.078-20.734
		C-37.271,101.474-46.915,111.403-46.801,122.711z"/>
	<path fill="none" d="M124.861,88.741c19.298,0.065,34.162,14.577,34.186,33.396c0.021,18.765-15.447,34.019-34.523,34.026
		c-19.02,0.009-34.846-15.429-34.705-33.924C89.915,103.639,105.579,88.672,124.861,88.741z M145.323,122.391
		c0-11.308-9.74-20.96-20.918-20.753c-11.543,0.212-20.92,9.703-20.787,20.956c0.17,10.875,9.697,19.985,21.049,20.072
		C135.778,142.743,145.323,133.404,145.323,122.391z"/>
	<path fill="#FCB914" d="M49.299,15.239C37.367,15.26,28.23,6.375,28.361-5.095c0.127-11.149,9.317-19.968,20.819-19.996
		C60.71-25.119,69.975-16.32,70.145-5.218C70.275,6.296,61.208,15.223,49.299,15.239z"/>
	<path fill="#F1666E" d="M-46.801,122.711c-0.114-11.308,9.53-21.238,20.586-21.2c11.383,0.041,21.082,9.577,21.077,20.734
		c-0.004,11.087-9.854,20.576-21.276,20.498C-37.256,142.67-46.696,133.395-46.801,122.711z"/>
	<path fill="#6B69B0" d="M145.323,122.391c0,11.014-9.545,20.353-20.656,20.275c-11.352-0.087-20.879-9.195-21.049-20.072
		c-0.133-11.253,9.244-20.744,20.787-20.956C135.583,101.431,145.323,111.083,145.323,122.391z"/>
</g>
</svg>
