<?xml version='1.0' encoding='utf-8'?>
<svg xmlns="http://www.w3.org/2000/svg" width="200mm" height="200mm" version="1.1" style="shape-rendering:geometricPrecision; text-rendering:geometricPrecision; image-rendering:optimizeQuality; fill-rule:evenodd; clip-rule:evenodd" viewBox="0 0 20000 20000"> <defs> <style type="text/css">  .fil3 {fill:#FEFEFE} .fil9 {fill:#F47E63} .fil6 {fill:#ED3237} .fil7 {fill:#AB3235} .fil8 {fill:#803031} .fil0 {fill:#94D9F8} .fil5 {fill:#65C7F1} .fil2 {fill:#00AFEF} .fil1 {fill:#0098DA} .fil4 {fill:#0083B3}  </style> </defs> <g id="Camada_x0020_1"> <metadata id="CorelCorpID_0Corel-Layer"/> <circle class="fil0" cx="10000" cy="10000" r="7500"/> <g id="_2503589937440"> <path class="fil1" d="M4184 13358c-792,-1454 176,-3180 1853,-3169 705,5 835,-69 1438,-453 825,-525 1068,-1357 1038,-2288 -31,-969 -905,-1289 -570,-2575 535,-2061 3469,-2122 4090,-85 193,630 93,1170 -242,1724 -357,587 -344,958 -268,1629 114,1015 710,1457 1569,1890 622,315 857,22 1534,240 156,51 269,106 413,184 1016,587 1364,1887 778,2903 -587,1017 -1887,1365 -2904,778 -940,-574 -723,-1315 -2018,-1906 -881,-401 -1775,-63 -2514,462 -598,426 -429,915 -1294,1444 -1016,587 -2316,238 -2903,-778z"/> <circle class="fil2" cx="10000" cy="5409" r="1578"/> <circle class="fil3" cx="10000" cy="5409" r="1052"/> <circle class="fil2" transform="matrix(-0.139934 0.242373 -0.242373 -0.139934 13975.7 12295.4)" r="5637"/> <circle class="fil3" transform="matrix(-0.0932895 0.161582 -0.161582 -0.0932893 13975.7 12295.4)" r="5637"/> <circle class="fil2" transform="matrix(-0.139934 -0.242373 0.242373 -0.139934 6024.51 12295)" r="5637"/> <circle class="fil3" transform="matrix(-0.0932895 -0.161582 0.161582 -0.0932895 6024.51 12295)" r="5637"/> <circle class="fil2" transform="matrix(-0.139934 -0.242373 0.242373 -0.139934 10000.2 9999.59)" r="5637"/> <path class="fil4" d="M11077 8847c111,104 209,225 289,364 436,754 177,1719 -577,2155 -669,386 -1502,227 -1987,-339 494,462 1251,569 1867,213 754,-435 1013,-1400 577,-2155 -50,-86 -106,-165 -169,-238z"/> <path class="fil4" d="M15054 11141c111,104 209,225 289,364 436,754 177,1719 -577,2155 -669,385 -1502,226 -1987,-339 494,462 1251,569 1867,213 754,-436 1013,-1400 577,-2155 -50,-86 -106,-165 -169,-238z"/> <path class="fil4" d="M7101 11142c111,104 209,226 289,364 436,755 177,1720 -577,2155 -669,386 -1502,227 -1987,-339 494,462 1250,569 1867,214 754,-436 1013,-1401 577,-2155 -50,-86 -106,-166 -169,-239z"/> <path class="fil4" d="M11078 4256c111,104 208,226 288,364 436,755 177,1719 -577,2155 -669,386 -1502,227 -1986,-339 494,462 1250,569 1866,214 754,-436 1013,-1401 577,-2155 -49,-86 -106,-166 -168,-239z"/> <path class="fil5" d="M8632 10788c-435,-754 -177,-1719 578,-2155 660,-381 1483,-230 1969,320 -492,-487 -1268,-607 -1897,-243 -755,435 -1013,1400 -578,2154 54,94 117,180 186,258 -99,-97 -186,-209 -258,-334z"/> <path class="fil5" d="M12611 13084c-436,-754 -178,-1719 577,-2155 661,-381 1483,-230 1970,320 -493,-487 -1268,-607 -1898,-243 -754,435 -1013,1400 -577,2155 54,93 116,179 185,257 -98,-97 -185,-209 -257,-334z"/> <path class="fil5" d="M4658 13084c-435,-755 -177,-1720 578,-2155 661,-382 1483,-231 1970,320 -493,-487 -1269,-607 -1898,-244 -754,436 -1013,1401 -577,2155 54,94 116,180 185,257 -98,-97 -185,-208 -258,-333z"/> <path class="fil5" d="M8632 6198c-435,-755 -177,-1719 578,-2155 660,-382 1483,-230 1969,320 -492,-487 -1268,-607 -1897,-244 -755,436 -1013,1401 -578,2155 54,94 117,180 186,258 -99,-97 -186,-209 -258,-334z"/> </g> <g id="_2503589934048"> <path class="fil6" d="M4184 6641c863,-1412 2842,-1437 3670,22 349,613 477,688 1112,1018 867,452 1709,247 2501,-245 823,-512 664,-1428 1945,-1782 2052,-566 3571,1944 2118,3500 -449,482 -967,666 -1614,652 -687,-15 -1001,182 -1545,583 -822,606 -906,1343 -852,2304 38,696 409,753 559,1449 34,160 43,285 47,448 0,1174 -951,2126 -2125,2126 -1174,0 -2126,-952 -2126,-2126 28,-1101 778,-1284 642,-2700 -93,-964 -833,-1570 -1657,-1946 -668,-305 -1007,86 -1897,-399 -1017,-587 -1365,-1887 -778,-2904z"/> <circle class="fil7" transform="matrix(0.139958 0.242414 -0.242414 0.139958 13975.5 7704.2)" r="5637"/> <circle class="fil3" transform="matrix(0.0933052 0.161609 -0.161609 0.0933052 13975.5 7704.2)" r="5637"/> <circle class="fil7" cx="10000" cy="14590" r="1577"/> <circle class="fil3" cx="10000" cy="14590" r="1052"/> <circle class="fil7" transform="matrix(0.139934 -0.242373 0.242373 0.139934 6024.52 7704.2)" r="5637"/> <circle class="fil3" transform="matrix(0.0932895 -0.161582 0.161582 0.0932895 6024.52 7704.21)" r="5637"/> <circle class="fil7" transform="matrix(0.139934 -0.242373 0.242373 0.139934 10000.2 9999.59)" r="5637"/> <path class="fil8" d="M11537 10356c-34,148 -91,294 -171,432 -435,755 -1400,1013 -2155,578 -668,-386 -947,-1188 -699,-1890 -153,659 132,1367 748,1723 755,435 1719,177 2155,-578 50,-86 90,-174 122,-265z"/> <path class="fil8" d="M11539 14947c-34,148 -91,294 -171,432 -435,755 -1400,1013 -2155,578 -668,-386 -947,-1188 -699,-1890 -153,659 132,1367 748,1723 755,435 1719,177 2155,-578 50,-86 90,-174 122,-265z"/> <path class="fil8" d="M7561 8060c-34,148 -91,294 -171,432 -435,755 -1400,1013 -2155,578 -668,-386 -947,-1187 -699,-1890 -153,659 132,1367 748,1723 755,436 1719,177 2155,-577 50,-86 90,-175 122,-266z"/> <path class="fil8" d="M15513 8061c-35,148 -91,293 -171,432 -436,754 -1400,1013 -2155,577 -668,-386 -947,-1187 -699,-1889 -154,658 132,1367 748,1723 754,435 1719,177 2155,-578 49,-86 90,-175 122,-265z"/> <path class="fil9" d="M8633 9209c436,-754 1401,-1013 2155,-577 661,381 941,1169 708,1866 176,-671 -109,-1402 -738,-1766 -754,-435 -1719,-177 -2155,578 -54,93 -97,190 -130,289 35,-134 88,-265 160,-390z"/> <path class="fil9" d="M8634 13802c436,-754 1400,-1013 2155,-577 661,382 941,1169 708,1866 175,-671 -109,-1402 -738,-1765 -754,-436 -1719,-177 -2155,577 -54,94 -97,191 -130,289 35,-133 88,-264 160,-390z"/> <path class="fil9" d="M4658 6915c436,-754 1401,-1013 2155,-577 661,382 942,1169 708,1866 176,-670 -108,-1402 -738,-1765 -754,-436 -1719,-177 -2155,577 -54,94 -97,191 -130,289 35,-133 88,-264 160,-390z"/> <path class="fil9" d="M12608 6914c436,-755 1401,-1013 2155,-577 661,381 942,1169 708,1866 176,-671 -108,-1402 -738,-1766 -754,-435 -1719,-177 -2155,578 -54,93 -97,190 -130,289 35,-134 88,-265 160,-390z"/> </g> </g> </svg>