<?xml version="1.0" encoding="utf-8"?>
<!-- Generator: Adobe Illustrator 19.1.0, SVG Export Plug-In . SVG Version: 6.00 Build 0)  -->
<svg version="1.1"
	 id="Layer_1" xmlns:rdf="http://www.w3.org/1999/02/22-rdf-syntax-ns#" xmlns:dc="http://purl.org/dc/elements/1.1/" xmlns:cc="http://creativecommons.org/ns#"
	 xmlns="http://www.w3.org/2000/svg" xmlns:xlink="http://www.w3.org/1999/xlink" x="0px" y="0px"
	 viewBox="-763.22534 902.87543 191.90071 383.99997" style="enable-background:new -763.22534 902.87543 191.90071 383.99997;"
	 xml:space="preserve">
<style type="text/css">
	.st0{opacity:0.7;}
	.st1{opacity:0.7;fill:#020202;stroke:#646464;stroke-miterlimit:10;}
	.st2{opacity:0.7;stroke:#646464;stroke-miterlimit:10;}
	.st3{opacity:0.7;fill:none;}
</style>
<g>
	<g transform="translate(-160,-64)" class="st0">
		<path d="M-435.02533,966.87543h-144.40002c-13.09998,0-23.79999,10.70001-23.79999,23.90002v336.29999
			c0,13.09998,10.70001,23.79993,23.79999,23.79993h144.30005c13.09998,0,23.79999-10.69995,23.79999-23.79993V990.77539
			C-411.22534,977.57544-421.92535,966.87543-435.02533,966.87543z M-523.22534,1002.77545
			c0-2.10004,1.70001-3.90002,3.90002-3.90002h24.29999c2.09998,0,3.89996,1.70001,3.89996,3.90002v0.29999
			c0,2.09998-1.70001,3.90002-3.89996,3.90002h-24.29999c-2.10004,0-3.90002-1.70001-3.90002-3.90002V1002.77545z
			 M-535.22534,998.87543c2.20001,0,4,1.79999,4,4s-1.79999,4-4,4s-4-1.79999-4-4S-537.42535,998.87543-535.22534,998.87543z
			 M-507.22534,1334.97546c-8.90002,0-16.10004-7.20007-16.10004-16.09998c0-8.90002,7.20001-16.1001,16.10004-16.1001
			s16.09998,7.20007,16.09998,16.1001C-491.12537,1327.77539-498.42535,1334.97546-507.22534,1334.97546z M-427.22534,1286.87549
			h-160v-256h160V1286.87549z"/>
	</g>
	<g>
		<path class="st1" d="M-683.375,1254.83179c0,8.90002,7.20001,16.09998,16.10004,16.09998
			c8.79999,0,16.09998-7.19995,16.09998-16.09998s-7.19995-16.09998-16.09998-16.09998S-683.375,1245.93176-683.375,1254.83179z"/>
		<path class="st2" d="M-691.27496,938.83185c0-2.20001-1.79999-4-4-4s-4,1.79999-4,4c0,2.19995,1.79999,4,4,4
			S-691.27496,941.0318-691.27496,938.83185z"/>
		<rect x="-747.27496" y="966.83185" class="st3" width="160" height="256"/>
		<path class="st2" d="M-655.07495,942.93182c2.19995,0,3.89996-1.79999,3.89996-3.89996v-0.30005
			c0-2.20001-1.79999-3.89996-3.89996-3.89996h-24.29999c-2.20001,0-3.90002,1.79999-3.90002,3.89996v0.30005
			c0,2.19995,1.79999,3.89996,3.90002,3.89996H-655.07495z"/>
	</g>
</g>
</svg>
