<?xml version="1.0" encoding="utf-8"?>
<!-- Generator: Adobe Illustrator 16.0.0, SVG Export Plug-In . SVG Version: 6.00 Build 0)  -->
<!DOCTYPE svg PUBLIC "-//W3C//DTD SVG 1.1//EN" "http://www.w3.org/Graphics/SVG/1.1/DTD/svg11.dtd">
<svg version="1.1" id="Layer_1" xmlns="http://www.w3.org/2000/svg" xmlns:xlink="http://www.w3.org/1999/xlink" x="0px" y="0px"
	 width="2048px" height="1500px" viewBox="0 0 2048 1500" enable-background="new 0 0 2048 1500" xml:space="preserve">
<g>
	<rect x="13.31" y="5.632" fill="#FDC010" width="488.927" height="354.809"/>
	<rect x="17.43" y="9.729" fill-rule="evenodd" clip-rule="evenodd" fill="#3A53A4" width="480.691" height="346.598"/>
	<rect x="21.542" y="13.841" fill="#3A53A4" width="472.455" height="338.374"/>
	<path fill-rule="evenodd" clip-rule="evenodd" fill="#FDC010" d="M486.314,17.947l23.621-16.981H5.623v364.122h504.312V0.966
		L486.314,17.947z M486.314,347.568H29.248V17.947h457.066V347.568z"/>
	<rect x="498.122" y="356.328" fill-rule="evenodd" clip-rule="evenodd" fill="#3A53A4" width="467.51" height="375.06"/>
	<path fill-rule="evenodd" clip-rule="evenodd" fill="#FDC010" d="M954.095,365.088l23.633-17.52H486.032V740.14h491.696V347.568
		L954.095,365.088z M954.095,722.627H509.657v-357.54h444.438V722.627z"/>
	<rect x="978.812" y="740.682" fill-rule="evenodd" clip-rule="evenodd" fill="#3A53A4" width="467.511" height="375.045"/>
	<path fill-rule="evenodd" clip-rule="evenodd" fill="#FDC010" d="M1434.245,749.464l24.174-17.542H966.727v392.594h491.692V731.922
		L1434.245,749.464z M1434.245,1107.012H990.89V749.464h443.355V1107.012z"/>
	<rect x="1472.687" y="1115.764" fill-rule="evenodd" clip-rule="evenodd" fill="#3A53A4" width="467.529" height="375.06"/>
	<path fill-rule="evenodd" clip-rule="evenodd" fill="#FDC010" d="M1928.131,1123.975l24.163-16.963h-491.688v392.022h491.688
		v-392.022L1928.131,1123.975z M1928.131,1482.072h-443.875v-358.098h443.875V1482.072z"/>
	<path fill="#FDC010" d="M301.264,80.058v65.293h-5.174c-1.678-12.513-4.68-22.498-9.012-29.928
		c-4.328-7.424-10.497-13.307-18.513-17.683c-8.002-4.366-16.294-6.524-24.865-6.524c-9.692,0-17.687,2.935-24.022,8.822
		c-6.348,5.894-9.513,12.608-9.513,20.125c0,5.767,2.02,11.005,6.013,15.718c5.779,6.975,19.523,16.269,41.221,27.861
		c17.683,9.472,29.769,16.731,36.252,21.787c6.462,5.055,11.444,11.009,14.948,17.883c3.496,6.871,5.233,14.074,5.233,21.586
		c0,14.305-5.572,26.636-16.703,36.961c-11.127,10.37-25.44,15.534-42.952,15.534c-5.508,0-10.667-0.428-15.496-1.258
		c-2.892-0.461-8.867-2.143-17.965-5.071c-9.075-2.932-14.828-4.388-17.241-4.388c-2.349,0-4.187,0.68-5.531,2.09
		c-1.357,1.392-2.353,4.257-3.006,8.626h-5.159v-64.751h5.159c2.428,13.563,5.691,23.703,9.784,30.429
		c4.104,6.736,10.363,12.333,18.79,16.773c8.424,4.457,17.667,6.681,27.737,6.681c11.628,0,20.83-3.054,27.593-9.187
		c6.751-6.132,10.126-13.362,10.126-21.713c0-4.648-1.273-9.331-3.85-14.067c-2.562-4.722-6.54-9.134-11.944-13.221
		c-3.626-2.785-13.533-8.708-29.752-17.756c-16.207-9.042-27.72-16.266-34.576-21.654c-6.855-5.39-12.033-11.328-15.57-17.809
		c-3.552-6.503-5.315-13.659-5.315-21.453c0-13.563,5.211-25.225,15.648-35.016c10.427-9.799,23.7-14.692,39.813-14.692
		c10.07,0,20.718,2.465,31.995,7.395c5.218,2.316,8.885,3.481,11.032,3.481c2.43,0,4.408-0.742,5.945-2.167
		c1.537-1.441,2.758-4.335,3.697-8.708H301.264z"/>
	<path fill="#FDC010" d="M709.826,449.343v74.627h41.622c10.816,0,18.04-1.611,21.662-4.877c4.84-4.253,7.542-11.766,8.114-22.544
		h5.159v65.712h-5.159c-1.314-9.183-2.613-15.077-3.927-17.689c-1.664-3.237-4.429-5.791-8.244-7.632
		c-3.805-1.871-9.684-2.806-17.605-2.806h-41.622v62.252c0,8.345,0.37,13.437,1.113,15.233c0.757,1.819,2.048,3.266,3.924,4.321
		c1.852,1.069,5.385,1.603,10.604,1.603h32.132c10.723,0,18.496-0.742,23.328-2.241c4.855-1.47,9.502-4.402,13.976-8.752
		c5.779-5.753,11.688-14.446,17.737-26.056h5.598l-16.346,47.354H655.905v-5.152h6.707c4.458,0,8.701-1.069,12.694-3.199
		c2.984-1.478,5.018-3.704,6.095-6.688c1.057-2.97,1.588-9.049,1.588-18.232V471.902c0-11.981-1.203-19.345-3.622-22.144
		c-3.355-3.704-8.942-5.56-16.755-5.56h-6.707v-5.159H801.89l2.086,41.364h-5.442c-1.959-9.948-4.13-16.755-6.5-20.481
		c-2.371-3.704-5.886-6.533-10.533-8.478c-3.744-1.411-10.296-2.101-19.698-2.101H709.826z"/>
	<path fill="#FDC010" d="M1274.182,838.188v65.318h-5.171c-1.681-12.538-4.684-22.516-9.005-29.946
		c-4.339-7.438-10.521-13.332-18.517-17.684c-8.011-4.363-16.311-6.532-24.881-6.532c-9.689,0-17.686,2.933-24.01,8.827
		c-6.369,5.894-9.514,12.619-9.514,20.125c0,5.73,2.008,11.009,6.002,15.707c5.791,6.986,19.531,16.242,41.23,27.854
		c17.682,9.486,29.76,16.74,36.256,21.803c6.449,5.063,11.442,11.03,14.932,17.883c3.492,6.874,5.244,14.09,5.244,21.594
		c0,14.305-5.589,26.636-16.688,36.977c-11.143,10.34-25.462,15.515-42.967,15.515c-5.493,0-10.667-0.401-15.516-1.27
		c-2.872-0.452-8.855-2.13-17.934-5.063c-9.079-2.925-14.848-4.372-17.252-4.372c-2.351,0-4.194,0.668-5.531,2.078
		c-1.358,1.396-2.354,4.246-3.002,8.626h-5.171v-64.755h5.171c2.423,13.549,5.678,23.703,9.765,30.437
		c4.121,6.726,10.378,12.331,18.804,16.777c8.426,4.447,17.667,6.673,27.741,6.673c11.625,0,20.83-3.058,27.593-9.19
		c6.764-6.123,10.125-13.361,10.125-21.712c0-4.625-1.283-9.332-3.87-14.068c-2.531-4.736-6.511-9.131-11.935-13.235
		c-3.614-2.769-13.524-8.679-29.764-17.72c-16.2-9.079-27.7-16.271-34.552-21.662c-6.855-5.389-12.026-11.342-15.57-17.83
		c-3.563-6.488-5.318-13.63-5.318-21.446c0-13.541,5.21-25.226,15.641-35.001c10.437-9.807,23.71-14.706,39.8-14.706
		c10.092,0,20.723,2.479,32.006,7.401c5.227,2.309,8.894,3.466,11.031,3.466c2.42,0,4.41-0.72,5.947-2.167
		c1.536-1.448,2.769-4.32,3.707-8.7H1274.182z"/>
	<path fill="#FDC010" d="M1707.789,1337.344h-73.343l-12.857,29.799c-3.162,7.319-4.75,12.798-4.75,16.435
		c0,2.881,1.372,5.391,4.119,7.579c2.746,2.169,8.678,3.614,17.831,4.269v5.131h-59.673v-5.131
		c7.921-1.409,13.039-3.222,15.37-5.462c4.759-4.447,10.019-13.489,15.805-27.141l66.632-155.38h4.885l65.942,157.042
		c5.314,12.634,10.125,20.815,14.468,24.594c4.32,3.741,10.341,5.873,18.083,6.347v5.131h-74.754v-5.131
		c7.558-0.399,12.657-1.648,15.293-3.764c2.657-2.166,4.001-4.757,4.001-7.808c0-4.092-1.863-10.526-5.59-19.369L1707.789,1337.344z
		"/>
	<polygon fill="#3A53A4" points="1703.885,1327.034 1671.749,1250.728 1638.767,1327.034 	"/>
	<path fill="#3A53A4" d="M1214.928,418.989V484.3h-5.151c-1.701-12.538-4.704-22.522-9.042-29.946
		c-4.32-7.431-10.489-13.318-18.518-17.683c-7.991-4.372-16.275-6.54-24.843-6.54c-9.695,0-17.687,2.948-24.033,8.834
		c-6.347,5.886-9.513,12.605-9.513,20.124c0,5.761,2.012,10.995,6.024,15.746c5.768,6.94,19.512,16.235,41.21,27.823
		c17.683,9.487,29.779,16.74,36.252,21.802c6.474,5.055,11.444,11.008,14.937,17.883c3.508,6.889,5.245,14.068,5.245,21.587
		c0,14.298-5.572,26.628-16.711,36.976c-11.119,10.341-25.421,15.516-42.943,15.516c-5.498,0-10.668-0.424-15.497-1.255
		c-2.892-0.46-8.859-2.152-17.972-5.071c-9.061-2.932-14.828-4.395-17.233-4.395c-2.35,0-4.176,0.684-5.53,2.094
		c-1.359,1.388-2.353,4.254-3.003,8.626h-5.156v-64.755h5.156c2.438,13.556,5.697,23.71,9.78,30.429
		c4.104,6.732,10.378,12.33,18.788,16.77c8.426,4.469,17.668,6.688,27.738,6.688c11.629,0,20.83-3.051,27.593-9.183
		c6.743-6.131,10.126-13.37,10.126-21.72c0-4.647-1.281-9.324-3.851-14.075c-2.568-4.722-6.548-9.116-11.936-13.213
		c-3.634-2.776-13.541-8.708-29.761-17.757c-16.206-9.035-27.719-16.257-34.575-21.646c-6.833-5.39-12.044-11.328-15.57-17.817
		c-3.56-6.495-5.315-13.644-5.315-21.438c0-13.555,5.212-25.232,15.642-35.039c10.434-9.784,23.707-14.676,39.819-14.676
		c10.07,0,20.719,2.457,32.002,7.386c5.211,2.316,8.878,3.475,11.032,3.475c2.422,0,4.408-0.72,5.93-2.153
		c1.556-1.456,2.77-4.335,3.728-8.708H1214.928z"/>
	<path fill="#3A53A4" d="M1342.117,586.409c-6.185,4.588-13.471,6.904-21.844,6.904c-12.568,0-23.525-5.39-32.818-16.161
		c-9.332-10.757-13.924-25.604-13.853-44.548h88.442c0-15.775-4.613-28.38-13.837-37.808c-9.22-9.406-21.009-14.134-35.328-14.134
		c-16.963,0-31.049,6.109-42.276,18.32c-11.231,12.204-16.851,29.219-16.851,51.021c0,20.147,5.492,36.181,16.435,48.111
		c10.938,11.93,24.104,17.883,39.456,17.883c14.156,0,25.944-5.218,35.35-15.663c9.398-10.437,15.076-22.01,17.052-34.727
		l-4.324-2.776C1353.526,573.952,1348.319,581.821,1342.117,586.409 M1284.307,499.533c6.076-5.976,13.003-8.976,20.723-8.976
		c5.029,0,9.854,1.478,14.465,4.447c4.613,2.976,8.103,7.067,10.414,12.256c1.485,3.348,2.461,9.086,2.933,17.267h-59.238
		C1274.635,513.845,1278.198,505.516,1284.307,499.533"/>
	<path fill="#3A53A4" d="M1416.235,480.811v28.677c10.705-19.13,21.699-28.677,32.981-28.677c5.101,0,9.347,1.551,12.695,4.662
		c3.362,3.11,5.025,6.703,5.025,10.794c0,3.608-1.21,6.681-3.616,9.19c-2.426,2.495-5.318,3.749-8.662,3.749
		c-3.273,0-6.926-1.589-10.977-4.795c-4.049-3.208-7.052-4.811-9.008-4.811c-1.695,0-3.466,0.928-5.44,2.799
		c-4.21,3.793-8.516,10.073-12.999,18.788v61.125c0,7.052,0.884,12.382,2.64,16.012c1.229,2.502,3.381,4.595,6.454,6.258
		c3.073,1.67,7.468,2.524,13.255,2.524v4.995h-65.512v-4.995c6.529,0,11.354-1.025,14.521-3.074c2.335-1.485,3.96-3.852,4.881-7.089
		c0.49-1.582,0.705-6.095,0.705-13.519v-49.417c0-14.854-0.305-23.703-0.902-26.539c-0.615-2.829-1.719-4.885-3.344-6.198
		c-1.631-1.3-3.653-1.945-6.079-1.945c-2.893,0-6.147,0.706-9.781,2.086l-1.411-5.019l38.717-15.582H1416.235z"/>
	<path fill="#3A53A4" d="M1467.228,484.56h60.21v5.152h-3.904c-3.652,0-6.399,0.891-8.336,2.65c-1.9,1.774-2.84,4.12-2.84,7.104
		c0,3.237,0.976,7.09,2.914,11.559l29.745,70.448l29.904-73.098c2.15-5.196,3.219-9.139,3.219-11.833
		c0-1.292-0.363-2.368-1.121-3.199c-1.01-1.396-2.33-2.354-3.904-2.851c-1.573-0.512-4.792-0.779-9.658-0.779v-5.152h41.771v5.152
		c-4.811,0.372-8.173,1.351-10.055,2.925c-3.255,2.798-6.184,7.431-8.785,13.919l-45.387,109.45h-5.754l-45.672-107.631
		c-2.061-5.019-4.012-8.611-5.876-10.794c-1.863-2.182-4.25-4.016-7.126-5.493c-1.573-0.839-4.685-1.633-9.346-2.376V484.56z"/>
	<path fill="#3A53A4" d="M1661.557,480.811v102.48c0,7.98,0.578,13.295,1.752,15.946c1.158,2.65,2.873,4.603,5.152,5.901
		c2.293,1.299,6.458,1.968,12.53,1.968v4.995h-62.187v-4.995c6.24,0,10.438-0.609,12.568-1.819c2.152-1.202,3.853-3.199,5.101-5.999
		c1.27-2.769,1.9-8.106,1.9-15.997v-49.157c0-13.837-0.417-22.775-1.248-26.873c-0.652-2.985-1.7-5.033-3.081-6.198
		c-1.41-1.166-3.325-1.737-5.745-1.737c-2.605,0-5.786,0.706-9.495,2.086l-1.951-5.019l38.549-15.582H1661.557z"/>
	<path fill="#3A53A4" d="M1649.962,414.111c3.904,0,7.229,1.366,9.998,4.113c2.732,2.739,4.105,6.05,4.105,9.955
		c0,3.897-1.373,7.245-4.105,10.021c-2.769,2.769-6.094,4.165-9.998,4.165c-3.905,0-7.269-1.396-10.052-4.165
		c-2.784-2.776-4.194-6.124-4.194-10.021c0-3.905,1.373-7.216,4.119-9.955C1642.582,415.478,1645.968,414.111,1649.962,414.111"/>
	<path fill="#3A53A4" d="M1805.304,563.648c-3.452,16.799-10.2,29.738-20.252,38.779c-10.051,9.049-21.208,13.57-33.397,13.57
		c-14.521,0-27.191-6.072-38.008-18.232c-10.778-12.159-16.205-28.595-16.205-49.291c0-20.043,5.991-36.33,17.979-48.869
		c11.951-12.538,26.323-18.796,43.07-18.796c12.583,0,22.924,3.318,31.03,9.94c8.099,6.659,12.145,13.541,12.145,20.689
		c0,3.533-1.136,6.384-3.415,8.575c-2.279,2.167-5.479,3.25-9.562,3.25c-5.501,0-9.658-1.752-12.441-5.271
		c-1.588-1.959-2.643-5.671-3.147-11.149c-0.505-5.479-2.391-9.666-5.657-12.539c-3.259-2.776-7.779-4.165-13.547-4.165
		c-9.332,0-16.814,3.43-22.493,10.296c-7.557,9.094-11.32,21.105-11.32,36.071c0,15.218,3.764,28.639,11.246,40.309
		c7.505,11.655,17.63,17.46,30.385,17.46c9.145,0,17.317-3.118,24.586-9.316c5.122-4.276,10.125-12.034,14.95-23.258
		L1805.304,563.648z"/>
	<path fill="#3A53A4" d="M1913.344,586.409c-6.185,4.588-13.466,6.904-21.84,6.904c-12.59,0-23.511-5.39-32.841-16.161
		c-9.295-10.757-13.92-25.604-13.815-44.548h88.421c0-15.775-4.611-28.38-13.83-37.808c-9.22-9.406-21.016-14.134-35.351-14.134
		c-16.963,0-31.029,6.109-42.239,18.32c-11.246,12.204-16.851,29.219-16.851,51.021c0,20.147,5.478,36.181,16.413,48.111
		c10.941,11.93,24.111,17.883,39.463,17.883c14.171,0,25.944-5.218,35.35-15.663c9.398-10.437,15.093-22.01,17.045-34.727
		l-4.336-2.776C1924.753,573.952,1919.564,581.821,1913.344,586.409 M1855.515,499.533c6.095-5.976,13.021-8.976,20.741-8.976
		c5.048,0,9.858,1.478,14.469,4.447c4.609,2.976,8.084,7.067,10.399,12.256c1.515,3.348,2.494,9.086,2.94,17.267h-59.217
		C1845.864,513.845,1849.443,505.516,1855.515,499.533"/>
	<path fill="#3A53A4" d="M2032.72,480.811v43.435h-4.587c-3.55-13.644-8.086-22.923-13.639-27.853
		c-5.53-4.907-12.583-7.364-21.171-7.364c-6.511,0-11.774,1.7-15.769,5.145c-4.001,3.445-6.027,7.238-6.027,11.425
		c0,5.211,1.507,9.65,4.491,13.347c2.889,3.815,8.753,7.854,17.571,12.129l20.414,9.888c18.9,9.19,28.373,21.298,28.373,36.331
		c0,11.61-4.41,20.956-13.198,28.061c-8.828,7.096-18.662,10.652-29.546,10.652c-7.831,0-16.783-1.388-26.835-4.187
		c-3.072-0.92-5.605-1.381-7.542-1.381c-2.146,0-3.817,1.203-5.04,3.623h-4.597v-45.543h4.597
		c2.598,12.999,7.594,22.79,14.965,29.381c7.349,6.593,15.589,9.889,24.704,9.889c6.436,0,11.686-1.871,15.731-5.627
		c4.053-3.786,6.079-8.299,6.079-13.592c0-6.406-2.264-11.78-6.784-16.146c-4.499-4.351-13.541-9.888-27.036-16.577
		c-13.481-6.681-22.347-12.702-26.524-18.09c-4.208-5.285-6.31-11.982-6.31-20.051c0-10.497,3.616-19.256,10.845-26.309
		c7.2-7.052,16.548-10.586,28.018-10.586c5.002,0,11.12,1.062,18.275,3.199c4.773,1.388,7.943,2.086,9.517,2.086
		c1.5,0,2.635-0.334,3.505-0.973c0.83-0.653,1.811-2.093,2.933-4.313H2032.72z"/>
	<path fill="#3A53A4" d="M891.92,61.715v74.204h34.519c7.9,0,13.697-1.732,17.387-5.214c3.66-3.481,6.128-10.371,7.33-20.685h5.163
		v63.918h-5.163c-0.1-7.331-1.058-12.719-2.876-16.164c-1.804-3.429-4.313-6.006-7.527-7.72c-3.229-1.719-7.987-2.576-14.313-2.576
		H891.92v59.306c0,9.576,0.594,15.886,1.819,18.944c0.92,2.331,2.88,4.313,5.865,6.002c4.098,2.216,8.373,3.325,12.85,3.325h6.851
		v5.156h-81.323v-5.156h6.726c7.809,0,13.495-2.275,17.032-6.818c2.242-2.973,3.352-10.125,3.352-21.453V84.824
		c0-9.561-0.594-15.871-1.815-18.944c-0.924-2.316-2.833-4.32-5.723-5.984c-4.013-2.226-8.289-3.325-12.846-3.325h-6.726v-5.174
		h140.985l1.796,41.496h-4.869c-2.428-8.812-5.263-15.276-8.463-19.427c-3.222-4.123-7.188-7.104-11.87-8.978
		c-4.703-1.853-12-2.773-21.873-2.773H891.92z"/>
	<path fill="#3A53A4" d="M1045.733,42.214v169.179c0,7.988,0.579,13.266,1.737,15.871c1.173,2.591,2.966,4.573,5.39,5.91
		c2.42,1.35,6.94,2.034,13.563,2.034v5.003h-62.729v-5.003c5.865,0,9.863-0.613,12.016-1.815c2.142-1.202,3.812-3.203,5.037-5.994
		c1.203-2.776,1.804-8.111,1.804-16.006V95.544c0-14.382-0.323-23.243-0.973-26.517c-0.652-3.289-1.707-5.553-3.146-6.762
		c-1.448-1.196-3.281-1.809-5.523-1.809c-2.424,0-5.498,0.739-9.213,2.223l-2.378-4.873l38.126-15.593H1045.733z"/>
	<path fill="#3A53A4" d="M1170.971,214.515c-6.185,4.592-13.489,6.908-21.844,6.908c-12.583,0-23.525-5.39-32.838-16.167
		c-9.327-10.757-13.923-25.604-13.832-44.541h88.441c0-15.779-4.633-28.391-13.853-37.812c-9.221-9.413-21.012-14.13-35.335-14.13
		c-16.959,0-31.026,6.11-42.254,18.313c-11.231,12.198-16.851,29.222-16.851,51.029c0,20.147,5.478,36.182,16.435,48.111
		c10.92,11.922,24.082,17.883,39.456,17.883c14.156,0,25.93-5.219,35.327-15.67c9.405-10.442,15.099-22.014,17.074-34.734
		l-4.343-2.776C1182.361,202.055,1177.154,209.923,1170.971,214.515 M1113.146,127.643c6.072-5.979,13.018-8.982,20.719-8.982
		c5.048,0,9.874,1.484,14.469,4.438c4.609,2.985,8.099,7.083,10.414,12.264c1.484,3.352,2.476,9.093,2.93,17.275h-59.22
		C1103.47,141.951,1107.033,133.625,1113.146,127.643"/>
	<path fill="#3A53A4" d="M1297.669,214.515c-6.183,4.592-13.469,6.908-21.862,6.908c-12.563,0-23.502-5.39-32.818-16.167
		c-9.309-10.757-13.918-25.604-13.83-44.541h88.42c0-15.779-4.595-28.391-13.814-37.812c-9.22-9.413-21.008-14.13-35.351-14.13
		c-16.962,0-31.044,6.11-42.258,18.313c-11.246,12.198-16.851,29.222-16.851,51.029c0,20.147,5.497,36.182,16.417,48.111
		c10.957,11.922,24.122,17.883,39.455,17.883c14.179,0,25.967-5.219,35.369-15.67c9.401-10.442,15.08-22.014,17.032-34.734
		l-4.32-2.776C1309.079,202.055,1303.875,209.923,1297.669,214.515 M1239.845,127.643c6.091-5.979,13.002-8.982,20.741-8.982
		c5.025,0,9.836,1.484,14.464,4.438c4.595,2.985,8.084,7.083,10.397,12.264c1.503,3.352,2.475,9.093,2.95,17.275h-59.239
		C1230.168,141.951,1233.753,133.625,1239.845,127.643"/>
	<path fill="#3A53A4" d="M1371.502,70.765v41.894h29.904v9.766h-29.904v82.703c0,8.255,1.191,13.837,3.542,16.703
		c2.404,2.873,5.44,4.313,9.186,4.313c3.072,0,6.039-0.943,8.912-2.851c2.895-1.908,5.137-4.699,6.729-8.426h5.442
		c-3.256,9.093-7.884,15.938-13.834,20.533c-5.946,4.592-12.093,6.904-18.439,6.904c-4.286,0-8.485-1.203-12.567-3.548
		c-4.091-2.372-7.127-5.761-9.099-10.163c-1.933-4.413-2.928-11.224-2.928-20.407v-85.762h-20.251v-4.596
		c5.115-2.042,10.359-5.494,15.712-10.371c5.352-4.888,10.128-10.667,14.323-17.349c2.13-3.519,5.133-9.98,8.93-19.345H1371.502z"/>
</g>
</svg>
