<?xml version="1.0" encoding="utf-8"?>
<!-- Generator: Adobe Illustrator 16.0.0, SVG Export Plug-In . SVG Version: 6.00 Build 0)  -->
<!DOCTYPE svg PUBLIC "-//W3C//DTD SVG 1.1//EN" "http://www.w3.org/Graphics/SVG/1.1/DTD/svg11.dtd">
<svg version="1.1" id="Layer_1" xmlns="http://www.w3.org/2000/svg" xmlns:xlink="http://www.w3.org/1999/xlink" x="0px" y="0px"
	 width="983.009px" height="692px" viewBox="0 0 983.009 692" enable-background="new 0 0 983.009 692" xml:space="preserve">
<g>
	<g>
		<rect x="7" y="12" fill="#FFC000" width="240" height="175"/>
		<rect x="17" y="22" fill="#2C55A3" width="220" height="155"/>
		<text transform="matrix(1 0 0 1 68.9712 133.687)" fill="#FFC000" font-family="'TimesNewRomanPSMT'" font-size="132">S.</text>
	</g>
	<g>
		<rect x="237" y="174" fill="#FFC000" width="240" height="175"/>
		<rect x="247" y="184" fill="#2C55A3" width="220" height="155"/>
		<text transform="matrix(1 0 0 1 298.9712 295.687)" fill="#FFC000" font-family="'TimesNewRomanPSMT'" font-size="132">E.</text>
	</g>
	<g>
		<rect x="467" y="339" fill="#FFC000" width="240" height="175"/>
		<rect x="477" y="349" fill="#2C55A3" width="220" height="155"/>
		<text transform="matrix(1 0 0 1 528.9707 460.6875)" fill="#FFC000" font-family="'TimesNewRomanPSMT'" font-size="132">S.</text>
	</g>
	<g>
		<rect x="697" y="504" fill="#FFC000" width="240" height="175"/>
		<rect x="707" y="514" fill="#2C55A3" width="220" height="155"/>
		<text transform="matrix(1 0 0 1 758.9707 625.6875)" fill="#FFC000" font-family="'TimesNewRomanPSMT'" font-size="132">A.</text>
	</g>
</g>
<text transform="matrix(1 0 0 1 493 295.687)" fill="#FFC000" font-family="'TimesNewRomanPSMT'" font-size="132">Logistics</text>
</svg>
