<?xml version="1.0" encoding="utf-8"?>
<!-- Generator: Adobe Illustrator 16.2.0, SVG Export Plug-In . SVG Version: 6.00 Build 0)  -->
<!DOCTYPE svg PUBLIC "-//W3C//DTD SVG 1.1//EN" "http://www.w3.org/Graphics/SVG/1.1/DTD/svg11.dtd">
<svg version="1.1" id="Layer_1" xmlns="http://www.w3.org/2000/svg" xmlns:xlink="http://www.w3.org/1999/xlink" x="0px" y="0px"
	 width="676.797px" height="520px" viewBox="0 0 676.797 520" enable-background="new 0 0 676.797 520" xml:space="preserve">
<rect id="rect43" x="145" y="130" fill="#FFCC00" width="145" height="130"/>
<polygon id="polygon45" fill="#2C55A3" points="152,137 283,137 283,253 152,253 "/>
<g>
	<path fill="#FFCC00" d="M199.645,161.51v29.046h13.236c3.435,0,5.729-0.631,6.884-1.896c1.539-1.661,2.398-4.587,2.576-8.779h1.644
		v25.578h-1.644c-0.415-3.577-0.829-5.871-1.244-6.882c-0.533-1.265-1.407-2.257-2.62-2.98c-1.215-0.723-3.081-1.084-5.597-1.084
		h-13.236v24.223c0,3.251,0.118,5.229,0.355,5.934s0.651,1.265,1.244,1.68c0.592,0.415,1.717,0.623,3.375,0.623h10.216
		c3.405,0,5.878-0.289,7.417-0.867c1.539-0.577,3.021-1.715,4.441-3.414c1.836-2.24,3.716-5.617,5.641-10.134h1.777l-5.197,18.425
		H182.5v-2.005h2.132c1.421,0,2.769-0.415,4.042-1.246c0.947-0.578,1.591-1.444,1.932-2.602c0.34-1.156,0.511-3.522,0.511-7.099
		v-47.742c0-4.661-0.385-7.533-1.155-8.616c-1.066-1.444-2.843-2.168-5.33-2.168H182.5V157.5h46.415l0.666,16.095h-1.732
		c-0.622-3.866-1.311-6.521-2.065-7.966c-0.755-1.444-1.873-2.547-3.354-3.306c-1.184-0.542-3.272-0.813-6.263-0.813H199.645z"/>
	<path fill="#FFCC00" d="M247.57,221.485c1.412,0,2.597,0.489,3.559,1.464c0.961,0.976,1.441,2.155,1.441,3.536
		c0,1.381-0.489,2.561-1.464,3.536c-0.976,0.975-2.156,1.464-3.536,1.464c-1.381,0-2.561-0.489-3.536-1.464
		c-0.976-0.976-1.464-2.155-1.464-3.536c0-1.411,0.488-2.597,1.464-3.559C245.009,221.965,246.188,221.485,247.57,221.485z"/>
</g>
<rect id="rect47" x="435" y="390" fill="#FFCC00" width="145" height="130"/>
<polygon id="polygon49" fill="#2C55A3" points="442,397 573,397 573,513 442,513 "/>
<g>
	<path fill="#FFCC00" d="M507.689,467.395h-22.953l-4.021,11.343c-0.992,2.793-1.488,4.877-1.488,6.256
		c0,1.094,0.433,2.057,1.291,2.889c0.859,0.83,2.718,1.369,5.574,1.615v1.961h-18.668v-1.961c2.478-0.529,4.08-1.219,4.81-2.066
		c1.485-1.696,3.133-5.141,4.94-10.336l20.853-59.151h1.528l20.636,59.789c1.659,4.805,3.17,7.924,4.524,9.354
		c1.354,1.43,3.24,2.234,5.66,2.41v1.961h-23.389v-1.961c2.36-0.141,3.957-0.617,4.787-1.43c0.831-0.814,1.245-1.804,1.245-2.97
		c0-1.555-0.584-4.012-1.748-7.366L507.689,467.395z M506.465,463.473l-10.055-29.047l-10.316,29.047H506.465z"/>
	<path fill="#FFCC00" d="M542.574,482.059c1.412,0,2.596,0.488,3.559,1.466c0.961,0.975,1.439,2.153,1.439,3.534
		c0,1.382-0.486,2.562-1.463,3.535c-0.978,0.978-2.154,1.465-3.535,1.465s-2.562-0.487-3.537-1.465
		c-0.977-0.975-1.465-2.153-1.465-3.535c0-1.411,0.487-2.598,1.465-3.559C540.014,482.539,541.193,482.059,542.574,482.059z"/>
</g>
<rect id="rect5" fill="#FFCC00" width="145" height="130"/>
<polygon id="polygon37" fill="#2C55A3" points="7,7 138,7 138,123 7,123 "/>
<g>
	<path fill="#FFCC00" d="M78.698,27.5v24.807h-1.879c-0.61-4.761-1.702-8.551-3.277-11.372c-1.575-2.82-3.818-5.06-6.73-6.717
		c-2.913-1.657-5.927-2.486-9.042-2.486c-3.522,0-6.434,1.12-8.737,3.358c-2.304,2.24-3.454,4.787-3.454,7.644
		c0,2.187,0.728,4.178,2.184,5.977c2.1,2.645,7.094,6.17,14.986,10.578c6.434,3.597,10.828,6.355,13.183,8.277
		c2.354,1.921,4.165,4.187,5.435,6.796c1.27,2.609,1.905,5.342,1.905,8.199c0,5.43-2.024,10.11-6.07,14.042
		c-4.047,3.932-9.254,5.897-15.621,5.897c-1.999,0-3.878-0.158-5.639-0.477c-1.05-0.176-3.226-0.819-6.527-1.93
		c-3.303-1.111-5.393-1.666-6.274-1.666c-0.847,0-1.517,0.264-2.007,0.793c-0.491,0.529-0.855,1.622-1.092,3.279h-1.88V77.905h1.88
		c0.88,5.147,2.065,9.001,3.556,11.558c1.49,2.556,3.767,4.68,6.833,6.373c3.065,1.692,6.426,2.539,10.083,2.539
		c4.233,0,7.576-1.164,10.033-3.491c2.455-2.327,3.683-5.077,3.683-8.251c0-1.764-0.466-3.544-1.397-5.342
		c-0.932-1.799-2.379-3.474-4.343-5.025c-1.321-1.058-4.928-3.306-10.82-6.743c-5.893-3.438-10.083-6.18-12.573-8.225
		c-2.489-2.044-4.377-4.302-5.664-6.771c-1.288-2.467-1.93-5.183-1.93-8.145c0-5.148,1.896-9.582,5.689-13.303
		c3.792-3.72,8.618-5.58,14.478-5.58c3.657,0,7.535,0.935,11.633,2.804c1.896,0.881,3.233,1.322,4.012,1.322
		c0.882,0,1.6-0.272,2.159-0.82c0.559-0.546,1.007-1.647,1.347-3.306L78.698,27.5L78.698,27.5z"/>
	<path fill="#FFCC00" d="M101.861,92.5c1.412,0,2.598,0.487,3.559,1.464c0.961,0.976,1.441,2.154,1.441,3.536
		c0,1.38-0.488,2.56-1.465,3.536c-0.976,0.976-2.154,1.464-3.535,1.464c-1.382,0-2.56-0.488-3.536-1.464
		c-0.977-0.976-1.464-2.156-1.464-3.536c0-1.412,0.488-2.598,1.464-3.559C99.302,92.981,100.479,92.5,101.861,92.5z"/>
</g>
<rect id="rect5_1_" x="290" y="260" fill="#FFCC00" width="145" height="130"/>
<polygon id="polygon37_1_" fill="#2C55A3" points="297,267 428,267 428,383 297,383 "/>
<g>
	<path fill="#FFCC00" d="M368.697,287.5v24.807h-1.879c-0.609-4.76-1.701-8.551-3.277-11.371c-1.574-2.819-3.818-5.061-6.73-6.717
		c-2.912-1.658-5.927-2.486-9.043-2.486c-3.521,0-6.434,1.119-8.735,3.357c-2.306,2.24-3.454,4.787-3.454,7.645
		c0,2.187,0.728,4.179,2.184,5.978c2.102,2.646,7.096,6.17,14.985,10.578c6.436,3.596,10.828,6.354,13.184,8.276
		c2.354,1.92,4.164,4.187,5.437,6.795c1.27,2.609,1.903,5.343,1.903,8.199c0,5.431-2.022,10.111-6.069,14.043
		c-4.047,3.933-9.254,5.896-15.621,5.896c-1.999,0-3.879-0.158-5.639-0.477c-1.051-0.176-3.227-0.818-6.527-1.931
		c-3.303-1.11-5.394-1.665-6.273-1.665c-0.847,0-1.517,0.264-2.007,0.793c-0.491,0.528-0.854,1.622-1.092,3.278h-1.88v-24.594h1.88
		c0.88,5.147,2.064,9,3.556,11.557c1.491,2.558,3.768,4.681,6.832,6.373c3.065,1.692,6.426,2.539,10.084,2.539
		c4.232,0,7.576-1.164,10.033-3.49c2.455-2.327,3.684-5.077,3.684-8.252c0-1.764-0.467-3.543-1.397-5.342s-2.379-3.474-4.344-5.024
		c-1.32-1.058-4.929-3.306-10.819-6.742c-5.895-3.439-10.083-6.181-12.573-8.226c-2.487-2.045-4.377-4.303-5.664-6.771
		c-1.287-2.467-1.93-5.182-1.93-8.146c0-5.147,1.896-9.582,5.688-13.303c3.793-3.72,8.618-5.58,14.479-5.58
		c3.657,0,7.535,0.937,11.634,2.806c1.896,0.881,3.232,1.321,4.012,1.321c0.882,0,1.601-0.272,2.158-0.819
		c0.562-0.548,1.008-1.648,1.349-3.308L368.697,287.5L368.697,287.5z"/>
	<path fill="#FFCC00" d="M391.861,352.5c1.412,0,2.598,0.488,3.559,1.465s1.441,2.154,1.441,3.535s-0.488,2.561-1.465,3.537
		c-0.976,0.975-2.154,1.463-3.535,1.463s-2.56-0.488-3.535-1.463c-0.978-0.977-1.465-2.156-1.465-3.537
		c0-1.412,0.487-2.598,1.465-3.559C389.303,352.982,390.48,352.5,391.861,352.5z"/>
</g>
<path fill="#2C55A3" stroke="#2C55A3" stroke-width="3" d="M265.221,34.741V62.31h12.775c2.93,0,5.076-0.646,6.439-1.94
	c1.362-1.293,2.268-3.854,2.716-7.681h1.913V76.43h-1.913c-0.034-2.723-0.388-4.724-1.061-6c-0.673-1.275-1.604-2.231-2.793-2.87
	c-1.189-0.638-2.957-0.957-5.302-0.957H265.22v22.034c0,3.552,0.224,5.896,0.672,7.035c0.344,0.861,1.068,1.604,2.172,2.224
	c1.518,0.827,3.104,1.241,4.76,1.241h2.534v1.914h-30.104v-1.914h2.482c2.896,0,4.999-0.845,6.311-2.534
	c0.827-1.104,1.241-3.758,1.241-7.966v-45.31c0-3.551-0.225-5.896-0.672-7.034c-0.346-0.861-1.053-1.604-2.121-2.224
	c-1.482-0.828-3.07-1.242-4.759-1.242h-2.482v-1.913h52.189l0.673,15.413h-1.811c-0.897-3.275-1.939-5.681-3.129-7.215
	c-1.19-1.534-2.656-2.646-4.396-3.336c-1.742-0.689-4.441-1.035-8.096-1.035H265.221z"/>
<path fill="#2C55A3" stroke="#2C55A3" stroke-width="3" d="M322.066,27.5v62.845c0,2.967,0.215,4.932,0.646,5.896
	c0.431,0.966,1.094,1.699,1.99,2.198c0.896,0.5,2.567,0.75,5.018,0.75v1.862h-23.225v-1.862c2.174,0,3.654-0.224,4.449-0.673
	c0.793-0.447,1.414-1.189,1.86-2.224c0.448-1.034,0.673-3.017,0.673-5.948V47.311c0-5.345-0.12-8.63-0.361-9.854
	s-0.629-2.061-1.164-2.509c-0.535-0.447-1.215-0.672-2.043-0.672c-0.897,0-2.035,0.275-3.414,0.827l-0.879-1.811l14.121-5.793
	L322.066,27.5L322.066,27.5z"/>
<path fill="#2C55A3" stroke="#2C55A3" stroke-width="3" d="M343.17,71.517c-0.035,7.035,1.672,12.553,5.12,16.553
	c3.447,4,7.5,6,12.155,6c3.104,0,5.801-0.854,8.095-2.561c2.293-1.707,4.216-4.629,5.767-8.768l1.604,1.035
	c-0.724,4.725-2.827,9.025-6.312,12.904c-3.481,3.88-7.844,5.819-13.086,5.819c-5.688,0-10.561-2.216-14.61-6.646
	c-4.054-4.431-6.078-10.388-6.078-17.87c0-8.104,2.077-14.423,6.231-18.957c4.156-4.534,9.371-6.803,15.646-6.803
	c5.311,0,9.673,1.751,13.087,5.25c3.413,3.5,5.12,8.182,5.12,14.043L343.17,71.517L343.17,71.517z M343.17,68.517h21.93
	c-0.172-3.033-0.534-5.172-1.086-6.413c-0.86-1.931-2.146-3.448-3.854-4.552c-1.708-1.104-3.49-1.655-5.354-1.655
	c-2.861,0-5.423,1.112-7.681,3.337C344.867,61.457,343.549,64.552,343.17,68.517z"/>
<path fill="#2C55A3" stroke="#2C55A3" stroke-width="3" d="M390.188,71.517c-0.035,7.035,1.672,12.553,5.12,16.553
	c3.447,4,7.5,6,12.155,6c3.104,0,5.802-0.854,8.095-2.561s4.217-4.629,5.769-8.768l1.604,1.035
	c-0.725,4.725-2.828,9.025-6.311,12.904c-3.483,3.88-7.845,5.819-13.086,5.819c-5.689,0-10.563-2.216-14.613-6.646
	s-6.077-10.388-6.077-17.87c0-8.104,2.076-14.423,6.232-18.957c4.155-4.534,9.371-6.803,15.646-6.803
	c5.311,0,9.672,1.751,13.086,5.25c3.414,3.5,5.121,8.182,5.121,14.043L390.188,71.517L390.188,71.517z M390.188,68.517h21.932
	c-0.173-3.033-0.535-5.172-1.086-6.413c-0.862-1.931-2.146-3.448-3.854-4.552c-1.708-1.104-3.491-1.655-5.354-1.655
	c-2.863,0-5.424,1.112-7.683,3.337C391.885,61.457,390.565,64.552,390.188,68.517z"/>
<path fill="#2C55A3" stroke="#2C55A3" stroke-width="3" d="M442.997,38.104v15.569h11.069v3.62h-11.069v30.724
	c0,3.07,0.438,5.139,1.319,6.207c0.88,1.069,2.009,1.604,3.388,1.604c1.139,0,2.242-0.354,3.311-1.061
	c1.068-0.705,1.896-1.75,2.482-3.129h2.018c-1.207,3.381-2.914,5.923-5.121,7.629c-2.206,1.707-4.481,2.561-6.826,2.561
	c-1.586,0-3.139-0.439-4.655-1.318c-1.518-0.879-2.638-2.139-3.361-3.775c-0.725-1.638-1.087-4.164-1.087-7.578V57.293h-7.5v-1.706
	c1.896-0.759,3.835-2.044,5.819-3.854c1.981-1.811,3.75-3.957,5.302-6.44c0.793-1.31,1.896-3.706,3.31-7.189H442.997z"/>
<path fill="#2C55A3" stroke="#2C55A3" stroke-width="3" d="M369.361,158.548v24.208h-1.91c-0.619-4.646-1.729-8.344-3.329-11.098
	c-1.602-2.753-3.88-4.938-6.839-6.556c-2.961-1.617-6.022-2.426-9.188-2.426c-3.579,0-6.538,1.092-8.878,3.278
	c-2.341,2.186-3.51,4.671-3.51,7.458c0,2.134,0.74,4.078,2.219,5.833c2.135,2.58,7.209,6.021,15.229,10.323
	c6.538,3.511,11.003,6.202,13.396,8.078c2.392,1.876,4.232,4.087,5.522,6.633c1.29,2.548,1.936,5.214,1.936,8.001
	c0,5.299-2.057,9.867-6.169,13.704c-4.111,3.837-9.402,5.755-15.871,5.755c-2.031,0-3.94-0.154-5.729-0.464
	c-1.066-0.173-3.277-0.8-6.633-1.884c-3.356-1.084-5.479-1.627-6.375-1.627c-0.859,0-1.54,0.259-2.038,0.775
	c-0.499,0.516-0.87,1.582-1.11,3.199h-1.91v-24.002h1.91c0.895,5.025,2.099,8.783,3.613,11.279c1.515,2.495,3.828,4.567,6.942,6.219
	c3.113,1.652,6.529,2.479,10.246,2.479c4.301,0,7.698-1.136,10.193-3.407s3.742-4.955,3.742-8.052c0-1.721-0.474-3.459-1.419-5.214
	c-0.946-1.755-2.418-3.389-4.413-4.903c-1.343-1.033-5.007-3.227-10.994-6.582c-5.988-3.354-10.246-6.029-12.775-8.025
	c-2.528-1.996-4.448-4.199-5.756-6.607c-1.309-2.408-1.961-5.059-1.961-7.949c0-5.024,1.927-9.351,5.781-12.981
	c3.854-3.63,8.756-5.446,14.711-5.446c3.716,0,7.656,0.912,11.82,2.736c1.927,0.86,3.284,1.291,4.076,1.291
	c0.896,0,1.626-0.266,2.194-0.8c0.567-0.533,1.023-1.608,1.367-3.226H369.361L369.361,158.548z"/>
<path fill="#2C55A3" stroke="#2C55A3" stroke-width="3" d="M390.938,200.668c-0.034,7.021,1.67,12.526,5.11,16.518
	c3.439,3.993,7.484,5.987,12.13,5.987c3.098,0,5.789-0.852,8.078-2.555c2.288-1.703,4.206-4.619,5.755-8.749l1.602,1.032
	c-0.724,4.715-2.821,9.008-6.298,12.879c-3.478,3.871-7.828,5.807-13.06,5.807c-5.678,0-10.539-2.211-14.582-6.633
	c-4.044-4.422-6.064-10.367-6.064-17.834c0-8.086,2.071-14.393,6.221-18.918c4.146-4.523,9.351-6.787,15.614-6.787
	c5.298,0,9.651,1.747,13.059,5.238c3.406,3.494,5.11,8.164,5.11,14.015H390.938L390.938,200.668z M390.938,197.675h21.887
	c-0.173-3.027-0.534-5.162-1.084-6.4c-0.86-1.928-2.144-3.441-3.847-4.543c-1.702-1.102-3.483-1.652-5.342-1.652
	c-2.856,0-5.412,1.11-7.665,3.33C392.633,190.628,391.316,193.718,390.938,197.675z"/>
<path fill="#2C55A3" stroke="#2C55A3" stroke-width="3" d="M443.741,181.466V192.1c3.957-7.089,8.019-10.634,12.182-10.634
	c1.894,0,3.459,0.577,4.697,1.73c1.239,1.152,1.858,2.485,1.858,4c0,1.342-0.446,2.477-1.343,3.406
	c-0.896,0.929-1.962,1.395-3.2,1.395c-1.204,0-2.555-0.594-4.052-1.781s-2.605-1.781-3.329-1.781c-0.619,0-1.291,0.344-2.014,1.033
	c-1.549,1.411-3.148,3.734-4.801,6.968v22.659c0,2.616,0.328,4.595,0.98,5.937c0.446,0.929,1.239,1.704,2.374,2.323
	c1.136,0.619,2.771,0.929,4.904,0.929v1.858H427.79v-1.858c2.408,0,4.198-0.378,5.368-1.136c0.859-0.549,1.463-1.428,1.807-2.633
	c0.173-0.584,0.259-2.252,0.259-5.006v-18.324c0-5.506-0.111-8.783-0.336-9.834c-0.225-1.049-0.638-1.814-1.237-2.297
	c-0.604-0.481-1.353-0.723-2.246-0.723c-1.066,0-2.271,0.258-3.613,0.775l-0.516-1.859l14.297-5.781H443.741z"/>
<path fill="#2C55A3" stroke="#2C55A3" stroke-width="3" d="M462.686,182.86h22.247v1.91h-1.444c-1.342,0-2.367,0.327-3.071,0.98
	c-0.706,0.653-1.058,1.531-1.058,2.633c0,1.205,0.36,2.632,1.084,4.283l10.993,26.119l11.047-27.1
	c0.791-1.927,1.188-3.389,1.188-4.387c0-0.482-0.138-0.878-0.413-1.188c-0.379-0.517-0.859-0.869-1.445-1.059
	c-0.585-0.188-1.771-0.283-3.562-0.283v-1.91h15.434v1.91c-1.79,0.137-3.027,0.498-3.717,1.084
	c-1.204,1.031-2.288,2.753-3.252,5.161l-16.774,40.571h-2.116l-16.879-39.9c-0.759-1.857-1.48-3.191-2.168-4
	c-0.689-0.809-1.566-1.488-2.634-2.039c-0.586-0.31-1.736-0.602-3.458-0.877L462.686,182.86L462.686,182.86z"/>
<path fill="#2C55A3" stroke="#2C55A3" stroke-width="3" d="M534.278,181.466v37.99c0,2.961,0.216,4.93,0.646,5.911
	c0.432,0.98,1.066,1.712,1.91,2.193c0.843,0.482,2.383,0.723,4.619,0.723v1.858h-22.97v-1.858c2.306,0,3.854-0.224,4.646-0.671
	c0.792-0.447,1.42-1.188,1.885-2.22c0.465-1.032,0.696-3.011,0.696-5.937v-18.221c0-5.127-0.154-8.447-0.464-9.961
	c-0.241-1.102-0.62-1.867-1.136-2.298c-0.518-0.431-1.223-0.646-2.116-0.646c-0.964,0-2.134,0.258-3.511,0.775l-0.724-1.859
	l14.247-5.781h2.271V181.466z M529.994,156.742c1.445,0,2.676,0.508,3.69,1.523c1.016,1.015,1.522,2.245,1.522,3.69
	c0,1.445-0.508,2.684-1.522,3.716c-1.016,1.032-2.245,1.549-3.69,1.549s-2.685-0.517-3.716-1.549
	c-1.032-1.032-1.55-2.271-1.55-3.716c0-1.445,0.509-2.675,1.522-3.69C527.268,157.25,528.515,156.742,529.994,156.742z"/>
<path fill="#2C55A3" stroke="#2C55A3" stroke-width="3" d="M587.496,212.179c-1.273,6.229-3.769,11.021-7.484,14.375
	c-3.717,3.355-7.829,5.033-12.337,5.033c-5.368,0-10.048-2.254-14.04-6.762c-3.991-4.508-5.986-10.6-5.986-18.273
	c0-7.432,2.211-13.471,6.633-18.117s9.729-6.969,15.924-6.969c4.646,0,8.466,1.231,11.459,3.691
	c2.994,2.461,4.491,5.016,4.491,7.665c0,1.308-0.422,2.366-1.266,3.175c-0.843,0.809-2.021,1.213-3.536,1.213
	c-2.029,0-3.562-0.653-4.594-1.962c-0.585-0.723-0.972-2.099-1.161-4.13c-0.188-2.029-0.887-3.578-2.091-4.645
	c-1.204-1.033-2.873-1.549-5.007-1.549c-3.441,0-6.211,1.273-8.311,3.82c-2.787,3.373-4.182,7.828-4.182,13.368
	c0,5.644,1.385,10.626,4.155,14.943c2.77,4.318,6.512,6.478,11.227,6.478c3.372,0,6.4-1.152,9.085-3.458
	c1.894-1.582,3.733-4.456,5.522-8.62L587.496,212.179z"/>
<path fill="#2C55A3" stroke="#2C55A3" stroke-width="3" d="M602.207,200.668c-0.034,7.021,1.669,12.526,5.11,16.518
	c3.44,3.993,7.483,5.987,12.13,5.987c3.097,0,5.79-0.852,8.078-2.555c2.287-1.703,4.207-4.619,5.756-8.749l1.6,1.032
	c-0.723,4.715-2.821,9.008-6.297,12.879c-3.477,3.871-7.829,5.807-13.061,5.807c-5.678,0-10.537-2.211-14.581-6.633
	s-6.065-10.367-6.065-17.834c0-8.086,2.074-14.393,6.221-18.918c4.146-4.523,9.352-6.787,15.614-6.787
	c5.299,0,9.652,1.747,13.06,5.238c3.406,3.494,5.109,8.164,5.109,14.015H602.207L602.207,200.668z M602.207,197.675h21.886
	c-0.172-3.027-0.533-5.162-1.084-6.4c-0.859-1.928-2.142-3.441-3.846-4.543c-1.703-1.102-3.483-1.652-5.342-1.652
	c-2.856,0-5.411,1.11-7.665,3.33C603.902,190.628,602.586,193.718,602.207,197.675z"/>
<path fill="#2C55A3" stroke="#2C55A3" stroke-width="3" d="M671.735,181.466v16.105h-1.703c-1.309-5.059-2.985-8.499-5.032-10.324
	c-2.048-1.823-4.654-2.735-7.82-2.735c-2.408,0-4.354,0.638-5.833,1.91c-1.479,1.272-2.22,2.685-2.22,4.232
	c0,1.928,0.551,3.579,1.652,4.955c1.065,1.411,3.233,2.909,6.504,4.491l7.536,3.664c6.984,3.407,10.478,7.898,10.478,13.473
	c0,4.303-1.626,7.769-4.877,10.4c-3.252,2.633-6.892,3.949-10.918,3.949c-2.891,0-6.193-0.516-9.91-1.549
	c-1.136-0.344-2.063-0.516-2.787-0.516c-0.792,0-1.41,0.447-1.857,1.342h-1.703v-16.879h1.703c0.964,4.818,2.805,8.448,5.522,10.891
	c2.719,2.444,5.765,3.666,9.137,3.666c2.375,0,4.311-0.697,5.807-2.092c1.497-1.393,2.246-3.07,2.246-5.031
	c0-2.375-0.835-4.37-2.504-5.988c-1.669-1.617-4.998-3.665-9.988-6.143c-4.989-2.478-8.258-4.715-9.807-6.71
	c-1.55-1.962-2.323-4.439-2.323-7.433c0-3.889,1.334-7.141,4.001-9.756c2.667-2.615,6.116-3.924,10.349-3.924
	c1.858,0,4.112,0.396,6.764,1.188c1.755,0.517,2.925,0.774,3.51,0.774c0.551,0,0.979-0.12,1.29-0.361
	c0.31-0.24,0.671-0.774,1.084-1.601h1.701V181.466z"/>
</svg>
