<?xml version="1.0" encoding="UTF-8" standalone="no"?>
<svg
   xmlns:dc="http://purl.org/dc/elements/1.1/"
   xmlns:cc="http://creativecommons.org/ns#"
   xmlns:rdf="http://www.w3.org/1999/02/22-rdf-syntax-ns#"
   xmlns:svg="http://www.w3.org/2000/svg"
   xmlns="http://www.w3.org/2000/svg"
   xml:space="preserve"
   style="enable-background:new 0 0 25.937 25.937;"
   viewBox="0 0 25.937 25.937"
   y="0px"
   x="0px"
   id="Capa_1"
   version="1.1"><metadata
     id="metadata41"><rdf:RDF><cc:Work
         rdf:about=""><dc:format>image/svg+xml</dc:format><dc:type
           rdf:resource="http://purl.org/dc/dcmitype/StillImage" /><dc:title></dc:title></cc:Work></rdf:RDF></metadata><defs
     id="defs39" /><g
     transform="rotate(90,12.96895,12.9685)"
     id="g4"><path
       id="path2"
       d="m 15.794,25.937 h -5.552 c -0.092,0 -0.169,-0.073 -0.169,-0.165 v -8.7 C 9.313,16.345 8.333,15.377 7.479,14.332 6.449,13.046 5.259,11.289 5.235,9.077 V 6.247 H 2.274 C 2.205,6.247 2.147,6.211 2.118,6.15 2.091,6.09 2.102,6.022 2.143,5.97 L 7.136,0.065 C 7.164,0.023 7.212,0 7.261,0 v 0 c 0.05,0 0.099,0.023 0.128,0.064 l 4.953,5.876 c 0.047,0.029 0.074,0.082 0.074,0.136 0,0.099 -0.082,0.179 -0.172,0.17 -0.003,0 -0.003,0 -0.005,0 H 9.356 v 2.829 c 0,0.354 0.126,0.943 0.716,1.833 0.479,0.734 1.226,1.592 2.284,2.634 0.198,0.199 0.403,0.399 0.611,0.599 0.21,-0.198 0.416,-0.399 0.616,-0.599 1.04,-1.02 1.807,-1.909 2.28,-2.634 0.59,-0.89 0.716,-1.477 0.716,-1.814 V 6.246 h -2.882 c -0.064,0 -0.126,-0.036 -0.151,-0.097 -0.03,-0.06 -0.02,-0.127 0.02,-0.18 L 18.542,0.064 C 18.579,0.023 18.625,0 18.674,0 v 0 c 0.053,0 0.097,0.023 0.128,0.064 l 4.991,5.906 c 0.043,0.053 0.054,0.12 0.027,0.18 -0.03,0.061 -0.089,0.097 -0.155,0.097 H 20.7 v 2.829 c -0.022,2.213 -1.211,3.97 -2.241,5.256 -0.65,0.794 -1.421,1.612 -2.497,2.644 v 8.797 c 0,0.09 -0.075,0.164 -0.168,0.164 z"
       style="fill:#030104" /></g><g
     id="g6" /><g
     id="g8" /><g
     id="g10" /><g
     id="g12" /><g
     id="g14" /><g
     id="g16" /><g
     id="g18" /><g
     id="g20" /><g
     id="g22" /><g
     id="g24" /><g
     id="g26" /><g
     id="g28" /><g
     id="g30" /><g
     id="g32" /><g
     id="g34" /></svg>