<?xml version="1.0" encoding="utf-8"?>
<!-- Generator: Adobe Illustrator 16.2.0, SVG Export Plug-In . SVG Version: 6.00 Build 0)  -->
<!DOCTYPE svg PUBLIC "-//W3C//DTD SVG 1.1//EN" "http://www.w3.org/Graphics/SVG/1.1/DTD/svg11.dtd">
<svg version="1.1" id="Layer_1" xmlns="http://www.w3.org/2000/svg" xmlns:xlink="http://www.w3.org/1999/xlink" x="0px" y="0px"
	 width="512px" height="512px" viewBox="0 0 512 512" enable-background="new 0 0 512 512" xml:space="preserve">
<g>
	<polygon points="368,416 80,416 80,144 304.117,144 320.117,128 64,128 64,432 384,432 384,191.883 368,207.883 	"/>
	<polygon points="237.623,284.084 227.917,274.377 399.24,103.054 387.927,91.74 208,271.65 208,304 240.216,304 420.26,124.016 
		408.947,112.73 	"/>
	<path d="M444.213,80.313L444.213,80.313l-12.465-12.467c-2.664-2.38-6.191-3.846-10.002-3.846c-3.674,0.002-7.215,1.375-9.93,3.85
		L399.667,80l0.08,0.08l11.293,11.293l21.021,21.02l12.149-12.15c2.382-2.625,3.79-6.117,3.79-9.93
		C448,86.503,446.592,82.975,444.213,80.313z"/>
</g>
</svg>
